<svg version="1" xmlns="http://www.w3.org/2000/svg" width="536" height="536" viewBox="0 0 402.000000 402.000000"><path d="M304 10.2c-1.9 2.1-5.5 6-8 8.7-2.5 2.6-7.4 8.1-11 12.1-3.6 4-7.4 8.3-8.5 9.6-1.2 1.2-3.6 4.1-5.5 6.4-1.9 2.4-4.5 5.2-5.7 6.3-1.3 1.1-2.3 2.5-2.3 3s-1.1 2-2.5 3.3c-1.4 1.3-2.5 2.6-2.5 2.9 0 .6-5.4 8.1-8 11.2-.5.6-1.9 2.9-3.1 5-1.2 2.1-3 5-4 6.5-1.1 1.4-1.9 2.9-1.9 3.3 0 .4-.9 2-2.1 3.6-1.1 1.6-1.7 2.9-1.2 2.9.4 0 .4.4-.2.8-1.4 1-3.5 4.9-3.5 6.5 0 .7-.5 1.8-1.2 2.5-.6.6-1.3 1.7-1.4 2.4-.1.7-.8 2.6-1.5 4.3-.7 1.6-1.3 3.2-1.4 3.5-.1.3-.5 1.4-.9 2.5-1.8 4.6-2.6 7.3-4.2 13.5-.9 3.6-1.8 7.3-2 8.3-.2 1-.5 2.6-.8 3.5-.7 2.1-1.3 6.1-2.2 13.7-.3 3.3-.8 6.9-1 8-1.4 7.7 0 26.6 2.9 39 2.2 9.2 16.8 41.5 18.8 41.5.3 0 1.2 1.3 1.9 3s1.5 3 1.9 3c.3 0 1.9 2.3 3.6 5 1.6 2.8 3.2 5 3.6 5 .4 0 1.2 1.3 1.9 3 .7 1.6 1.6 2.7 2.1 2.4.5-.3.9.1.9.8 0 .8 1.7 3.2 3.8 5.5 2 2.3 4.4 5.2 5.2 6.4.8 1.2 3 3.7 4.9 5.6 3.4 3.7 7.3 11.1 6.5 12.5-.3.4-.1.8.4.8.4 0 1.9 2.6 3.2 5.7 1.3 3.2 3.3 7.8 4.4 10.3 1.1 2.5 2 4.7 2.1 5 0 .3.3.9.7 1.5.9 1.5 5.5 17.3 6.2 21.5.2.8.8 3.3 1.4 5.5 1.2 4.3 2.1 8.6 2.7 12.5.2 1.4.8 5.2 1.4 8.5.6 3.3 1.3 9.1 1.6 12.8.7 10.4 1.1 10.5 8.5 3.9 11.3-10 29.1-28.2 38.6-39.4 2.5-3 17.4-22.7 19.2-25.4 6.9-10.6 9.2-14.5 9.2-15.2 0-.5.7-1.5 1.5-2.2.8-.7 1.3-1.6 1-2-.3-.4.2-1.3 1-2s1.5-1.9 1.5-2.6c0-.8.5-1.4 1-1.4.6 0 .9-.3.8-.8-.1-.4.7-2.5 1.7-4.7s1.9-4.2 2-4.5c.1-.3.7-1.9 1.4-3.5 2.1-4.9 7-19.5 6.6-19.5-.3 0 0-1.2.6-2.8 1.2-3 1.4-3.7 2.3-10.5.4-2.7.9-5.9 1.2-7 2.2-10.8 2.2-35.7 0-45.2-3.5-15-3.4-14.7-9.2-27-3-6.6-11.3-19.5-12.5-19.5-.5 0-.9-.4-.9-1 0-1.1-2.7-4.4-8.2-10.2-2.1-2.1-3.8-4.1-3.8-4.3 0-.3-2.5-3-5.5-6.1-3-3.1-5.5-6-5.5-6.3 0-.4-1.5-2.3-3.2-4.2-1.8-1.9-4.4-5-5.8-6.8-1.4-1.8-3.3-4.2-4.2-5.2-1-1-3.6-4.5-5.8-7.8-2.3-3.3-4.5-6.1-5-6.3-.5-.2-1-.9-1.2-1.7-.2-.8-1-2.2-1.8-3.2-3.1-3.6-5.6-7.5-7-10.7-.5-1.2-1.4-2.2-2-2.2-.6 0-.8-.5-.5-1 .3-.6.2-1-.4-1-.5 0-1.3-1-1.7-2.3-.3-1.2-1.3-2.9-2.1-3.9-.8-.9-1.6-2.2-1.7-3-.2-.7-1.1-3.1-2.1-5.3-1-2.2-2-4.7-2.2-5.5-.2-.8-.6-2.6-.9-4-1.8-7.5-.7-24 2.2-35.2.8-3.3 1.4-6.1 1.2-6.2-.2-.1-1.9 1.5-3.8 3.6zM143.5 146.3c-4.4 2.7-42 28-42.5 28.6-.3.4-2.1 1.8-4 3.1s-3.7 2.7-4 3c-.3.3-1.8 1.6-3.5 2.8-5.9 4.5-10.9 8.8-15.3 12.9-2.5 2.4-4.6 4.3-4.8 4.3-.5 0-8.4 7.8-8.4 8.3 0 .2-1.9 2.4-4.1 4.8-2.3 2.4-5.3 6.2-6.7 8.4-1.4 2.2-2.8 4.2-3.3 4.5-1.2.8-9.4 15.1-13.2 23.2-2 4.2-4.6 10.9-5.7 15-4.3 14.9-4.9 20.2-4.6 37.8.2 13 .7 17.1 2.9 25.7 1.5 5.6 3.2 11.4 3.9 13 .6 1.5 1.2 3 1.3 3.3.4 1.3 4.1 8.6 4.5 9 .3.3 1.9 2.7 3.5 5.5 1.5 2.7 3.1 5.2 3.4 5.5.3.3 2.6 2.7 5.1 5.5 8.8 9.8 23.1 19.4 38.7 25.7 13.9 5.7 51.4 6.2 64.8.8 6.4-2.6 20-9.4 20.3-10.2.2-.4.8-.8 1.3-.8 1 0 5.7-4 12.9-11.1 13.9-13.6 22.8-35.3 22.8-55.5 0-18.8-7.3-39.4-18.8-52.4-1.2-1.4-2.5-3-2.8-3.5-.6-.9-5.5-5.2-11.3-10-1.3-1.1-5.1-3.8-8.4-6-3.3-2.2-6.7-4.7-7.5-5.5-.9-.8-3.1-2.6-4.9-3.9-7.7-5.8-16.6-20.9-18.6-31.5-2.9-15.2.8-37.5 10-59.9.8-2-.1-2.1-3-.4z"/></svg>
